<?xml version="1.0" ?><!DOCTYPE svg  PUBLIC '-//W3C//DTD SVG 1.1//EN'  'http://www.w3.org/Graphics/SVG/1.1/DTD/svg11.dtd'><svg enable-background="new 0 0 48 48" height="48px" version="1.1" viewBox="0 0 48 48" width="48px" xml:space="preserve" xmlns="http://www.w3.org/2000/svg" xmlns:xlink="http://www.w3.org/1999/xlink"><g id="Layer_5"><g><path d="M28.257,39.293v-1.262h-8.514v1.262c0,1.395-1.129,2.523-2.522,2.523h-2.08v2.521h17.717v-2.521h-2.079    C29.387,41.816,28.257,40.688,28.257,39.293z" fill="#241F20"/><path d="M45.4,3.662H2.62H2.6H0.035v2.389c-0.005,0.065-0.02,0.128-0.02,0.195v26.387v1.555v2.584H2.6h1.732    h40.085H45.4h2.564v-2.389c0.005-0.064,0.02-0.129,0.02-0.195v-0.332V6.246V3.662H45.4z M24,35.234    c-0.696,0-1.261-0.564-1.261-1.262s0.565-1.262,1.261-1.262c0.697,0,1.262,0.564,1.262,1.262S24.697,35.234,24,35.234z     M2.62,31.41V6.006H45.4V31.41H2.62z" fill="#241F20"/></g></g></svg>